<svg version="1.1" xmlns="http://www.w3.org/2000/svg"
     width="16px"
     height="16px" viewBox="0,0,256,256">
    <g fill="#6B6F7D" fill-rule="nonzero" stroke="none" stroke-width="1" stroke-linecap="butt" stroke-linejoin="miter"
       stroke-miterlimit="10" stroke-dasharray="" stroke-dashoffset="0" font-family="none"
       font-size="none" style="mix-blend-mode: normal">
        <g transform="scale(5.12,5.12)">
            <path
                d="M28.99219,8c-5.119,0 -9.60334,2.76825 -11.77734,7.15625c-1.136,-0.753 -2.46737,-1.15625 -3.85937,-1.15625c-3.645,0 -6.74714,3.02789 -6.99414,6.71289c-3.675,1.398 -6.36133,5.39019 -6.36133,9.61719c0,5.331 4.33792,9.66992 9.66992,9.66992h20.33008v-2h-20.33008c-4.23,0 -7.66992,-3.44092 -7.66992,-7.66992c0,-3.575 2.47195,-7.05864 5.62695,-7.93164l0.76172,-0.20898l-0.04102,-1.00586c0,-2.811 2.29377,-5.18555 5.00977,-5.18555c1.337,0 2.59497,0.52266 3.54297,1.47266l1.10547,1.10352l0.54102,-1.46484c1.599,-4.32 5.69927,-7.11133 10.44727,-7.11133c6.068,0.001 11.00586,5.0047 11.00586,11.2207c0,0.467 -0.00078,1.24816 -0.05078,1.66016l-0.13672,1.12109h1.12891l0.08594,-0.00391c2.201,0.009 4.19638,1.11887 5.48438,2.79688c1.229,0.403 2.24188,0.93831 3.04688,1.57031c-1.08,-3.335 -4.04845,-5.89659 -7.56445,-6.30859c0.006,-0.314 0.00586,-0.6293 0.00586,-0.9043c0,-7.251 -5.83581,-13.15039 -13.00781,-13.15039zM41,28c-2.55325,0 -4.69279,0.45652 -6.2832,1.2832c-1.59041,0.82669 -2.7168,2.13834 -2.7168,3.7168v4v4v4c0,1.57845 1.12639,2.89011 2.7168,3.7168c1.59041,0.82669 3.72996,1.2832 6.2832,1.2832c2.55325,0 4.69279,-0.45652 6.2832,-1.2832c1.59041,-0.82669 2.7168,-2.13834 2.7168,-3.7168v-4v-4v-4c0,-1.57845 -1.12639,-2.89011 -2.7168,-3.7168c-1.59041,-0.82669 -3.72996,-1.2832 -6.2832,-1.2832zM41,30c2.30775,0 4.16699,0.43778 5.36133,1.05859c1.19434,0.62081 1.63867,1.30986 1.63867,1.94141c0,0.63155 -0.44433,1.32059 -1.63867,1.94141c-1.19434,0.62081 -3.05357,1.05859 -5.36133,1.05859c-2.30775,0 -4.16699,-0.43778 -5.36133,-1.05859c-1.19434,-0.62081 -1.63867,-1.30986 -1.63867,-1.94141c0,-0.63155 0.44433,-1.32059 1.63867,-1.94141c1.19434,-0.62081 3.05357,-1.05859 5.36133,-1.05859zM34,36.2832c0.22683,0.15516 0.46382,0.3021 0.7168,0.43359c1.59041,0.82669 3.72996,1.2832 6.2832,1.2832c2.55325,0 4.69279,-0.45652 6.2832,-1.2832c0.25298,-0.1315 0.48996,-0.27843 0.7168,-0.43359v0.7168c0,0.63155 -0.44433,1.32059 -1.63867,1.94141c-1.19434,0.62081 -3.05357,1.05859 -5.36133,1.05859c-2.30775,0 -4.16699,-0.43778 -5.36133,-1.05859c-1.19434,-0.62081 -1.63867,-1.30986 -1.63867,-1.94141zM34,40.2832c0.22683,0.15516 0.46382,0.3021 0.7168,0.43359c1.59041,0.82669 3.72996,1.2832 6.2832,1.2832c2.55325,0 4.69279,-0.45652 6.2832,-1.2832c0.25298,-0.1315 0.48996,-0.27843 0.7168,-0.43359v0.7168c0,0.63155 -0.44433,1.32059 -1.63867,1.94141c-1.19434,0.62081 -3.05357,1.05859 -5.36133,1.05859c-2.30775,0 -4.16699,-0.43778 -5.36133,-1.05859c-1.19434,-0.62081 -1.63867,-1.30986 -1.63867,-1.94141zM34,44.2832c0.22683,0.15516 0.46382,0.3021 0.7168,0.43359c1.59041,0.82669 3.72996,1.2832 6.2832,1.2832c2.55325,0 4.69279,-0.45652 6.2832,-1.2832c0.25298,-0.1315 0.48996,-0.27843 0.7168,-0.43359v0.7168c0,0.63155 -0.44433,1.32059 -1.63867,1.94141c-1.19434,0.62081 -3.05357,1.05859 -5.36133,1.05859c-2.30775,0 -4.16699,-0.43778 -5.36133,-1.05859c-1.19434,-0.62081 -1.63867,-1.30986 -1.63867,-1.94141z"/>
        </g>
    </g>
</svg>
