<svg version="1.1" xmlns="http://www.w3.org/2000/svg"
     width="13px" height="13px" viewBox="0,0,256,256">
    <g fill="#6C707E" fill-rule="nonzero" stroke="none" stroke-width="1" stroke-linecap="butt" stroke-linejoin="miter"
       stroke-miterlimit="10" stroke-dasharray="" stroke-dashoffset="0" font-family="none"
       font-size="none" style="mix-blend-mode: normal">
        <g transform="scale(5.33333,5.33333)">
            <path
                d="M13.9043,6c-1.339,0 -2.59903,0.59014 -3.45703,1.61914l-3.4043,4.08594c-0.673,0.807 -1.04297,1.82986 -1.04297,2.88086v21.91406c0,3.033 2.468,5.5 5.5,5.5h16.51758c-1.08,-0.809 -1.98897,-1.827 -2.66797,-3h-13.84961c-1.379,0 -2.5,-1.122 -2.5,-2.5v-20.5h29.99805v9.34961c1.173,0.679 2.191,1.58897 3,2.66797v-13.43164c0,-1.051 -0.36997,-2.07386 -1.04297,-2.88086l-3.4043,-4.08594c-0.858,-1.029 -2.11608,-1.61914 -3.45508,-1.61914zM13.9043,9h20.18945c0.446,0 0.86634,0.19606 1.15234,0.53906l2.88281,3.46094h-28.25977l2.88477,-3.46094c0.286,-0.343 0.70439,-0.53906 1.15039,-0.53906zM19.5,20c-0.54095,-0.00765 -1.04412,0.27656 -1.31683,0.74381c-0.27271,0.46725 -0.27271,1.04514 0,1.51238c0.27271,0.46725 0.77588,0.75146 1.31683,0.74381h9c0.54095,0.00765 1.04412,-0.27656 1.31683,-0.74381c0.27271,-0.46725 0.27271,-1.04514 0,-1.51238c-0.27271,-0.46725 -0.77588,-0.75146 -1.31683,-0.74381zM34,26c-4.411,0 -8,3.589 -8,8c0,4.411 3.589,8 8,8c1.665,0 3.21019,-0.51272 4.49219,-1.38672l4.94727,4.94727c0.293,0.294 0.67655,0.43945 1.06055,0.43945c0.384,0 0.76755,-0.14645 1.06055,-0.43945c0.585,-0.586 0.585,-1.53509 0,-2.12109l-4.94531,-4.94727c0.873,-1.282 1.38477,-2.82719 1.38477,-4.49219c0,-4.411 -3.589,-8 -8,-8zM34,29c2.757,0 5,2.243 5,5c0,2.757 -2.243,5 -5,5c-2.757,0 -5,-2.243 -5,-5c0,-2.757 2.243,-5 5,-5z"/>
        </g>
    </g>
</svg>
